# Blender v2.78 (sub 0) OBJ File: 'truck.blend'
# www.blender.org
mtllib wheelf.mtl
o wheel.004_ID38.008
v -2.828875 -0.129732 1.278012
v -3.353022 -0.137195 1.551912
v -4.397915 -0.152073 1.551912
v -4.920362 -0.159512 0.927293
v -4.920362 -0.159511 -0.946448
v -4.397915 -0.152072 -1.571028
v -3.353022 -0.137194 -1.571028
v -2.842774 -0.129929 -1.220598
v -2.628818 0.956397 1.278012
v -3.115926 1.150072 1.551912
v -4.087020 1.536195 1.551912
v -4.572518 1.729252 0.927293
v -4.572518 1.729252 -0.946447
v -4.087020 1.536195 -1.571028
v -3.115925 1.150072 -1.571028
v -2.641792 0.961543 -1.220598
v -2.028453 1.883299 1.278012
v -2.404292 2.248624 1.551912
v -3.153738 2.976968 1.551912
v -3.528361 3.341141 0.927293
v -3.528361 3.341141 -0.946447
v -3.153738 2.976969 -1.571028
v -2.404292 2.248625 -1.571028
v -2.038392 1.893008 -1.220598
v -1.118983 2.509870 1.278013
v -1.326457 2.991235 1.551913
v -1.740061 3.950914 1.551913
v -1.946914 4.430748 0.927293
v -1.946914 4.430748 -0.946447
v -1.859413 3.904292 -1.577332
v -1.326457 2.991235 -1.571028
v -1.124565 2.522662 -1.220598
v -0.039059 2.740719 1.278013
v -0.046522 3.264845 1.551913
v -0.061400 4.309750 1.551913
v -0.068839 4.832197 0.927293
v -0.068839 4.832197 -0.946447
v -0.061400 4.309750 -1.571027
v -0.046522 3.264846 -1.571028
v -0.039257 2.754658 -1.220598
v 1.047099 2.540713 1.278013
v 1.240784 3.027789 1.551913
v 1.626896 3.998855 1.486673
v 1.820004 4.484384 0.927293
v 1.820004 4.484384 -0.946447
v 1.626897 3.998856 -1.571027
v 1.240784 3.027790 -1.571028
v 1.052214 2.553657 -1.220598
v 1.974040 1.940289 1.278013
v 2.339326 2.316167 1.551913
v 3.067631 3.065553 1.551913
v 3.431833 3.440246 0.927293
v 3.431833 3.440246 -0.946447
v 3.067731 3.065555 -1.571027
v 2.339326 2.316168 -1.571027
v 1.983699 1.950278 -1.220598
v 2.600553 1.030856 1.278013
v 3.081948 1.238321 1.551913
v 4.041656 1.651937 1.551913
v 4.521460 1.858739 0.927293
v 4.521460 1.858739 -0.946447
v 4.041656 1.651937 -1.571027
v 3.081948 1.238322 -1.571028
v 2.613375 1.036370 -1.220598
v 2.831452 -0.049136 1.278012
v 3.355599 -0.041672 1.551912
v 4.400493 -0.026794 1.551913
v 4.922939 -0.019355 0.927293
v 4.922940 -0.019355 -0.946447
v 4.400494 -0.026794 -1.571028
v 3.355599 -0.041672 -1.571028
v 2.845351 -0.048937 -1.220598
v 2.631395 -1.135254 1.278012
v 3.118503 -1.328929 1.551912
v 4.089598 -1.715052 1.551912
v 4.575095 -1.908119 0.927293
v 4.575095 -1.908119 -0.946447
v 4.089598 -1.715052 -1.571028
v 3.118503 -1.328928 -1.571028
v 2.644369 -1.140400 -1.220598
v 2.031030 -2.062155 1.278012
v 2.406869 -2.427492 1.551912
v 3.156216 -3.155827 1.551912
v 3.530938 -3.519999 0.927293
v 3.530938 -3.519999 -0.946447
v 3.156316 -3.155835 -1.591825
v 2.406870 -2.427491 -1.673535
v 2.040970 -2.071875 -1.220598
v 1.121560 -2.688728 1.278012
v 1.373268 -3.278134 1.551912
v 1.829610 -4.193642 1.551912
v 1.887908 -4.547157 0.976375
v 2.015773 -4.480227 -1.023783
v 1.781582 -4.042858 -1.555131
v 1.329034 -3.170102 -1.607831
v 1.127042 -2.701531 -1.220598
v 0.041537 -2.919587 1.278012
v 0.094703 -3.568290 1.551912
v 0.167639 -4.496301 1.551912
v 0.065207 -4.849426 1.076139
v 0.160443 -4.803455 -1.043925
v 0.118574 -4.333833 -1.570623
v 0.049000 -3.443704 -1.571028
v 0.041735 -2.933516 -1.220598
v -1.044522 -2.719570 1.278012
v -1.238207 -3.206657 1.551912
v -1.576476 -4.191075 1.551912
v -1.738154 -4.645216 1.014742
v -1.684901 -4.692901 -0.995718
v -1.586358 -4.079711 -1.571028
v -1.238207 -3.206656 -1.571028
v -1.049738 -2.732525 -1.220598
v -1.971463 -2.119146 1.278012
v -2.336749 -2.495035 1.551912
v -3.065154 -3.244411 1.551912
v -3.360356 -3.647545 1.101481
v -3.215497 -3.937330 -1.003037
v -3.065153 -3.244421 -1.571028
v -2.336748 -2.495034 -1.571028
v -1.981122 -2.129144 -1.220598
v -2.597975 -1.209714 1.278012
v -3.079371 -1.417179 1.551912
v -4.039078 -1.830794 1.551912
v -4.518883 -2.037606 0.927292
v -4.518883 -2.037606 -0.946448
v -4.039078 -1.830794 -1.571028
v -3.079371 -1.417178 -1.571028
v -2.610797 -1.215227 -1.220598
v 3.574335 -0.972281 -1.530003
v 2.696054 -0.433549 -1.392959
v 3.214765 -0.473951 -0.034996
vt 0.0457 0.3461
vt 0.0286 0.3391
vt 0.0455 0.3139
vt 0.0585 0.3269
vt 0.0457 0.3914
vt 0.0286 0.3985
vt 0.0227 0.3688
vt 0.0412 0.3688
vt 0.1719 0.3985
vt 0.1549 0.3914
vt 0.1594 0.3688
vt 0.1778 0.3688
vt 0.0706 0.2971
vt 0.0777 0.3141
vt 0.0585 0.4106
vt 0.0455 0.4236
vt 0.1551 0.4236
vt 0.1421 0.4106
vt 0.0777 0.4234
vt 0.0706 0.4405
vt 0.1299 0.4405
vt 0.1229 0.4234
vt 0.1003 0.4279
vt 0.1003 0.4464
vt 0.1002 0.4464
vt 0.1002 0.4279
vt 0.1719 0.3391
vt 0.1549 0.3461
vt 0.1421 0.3269
vt 0.1551 0.3139
vt 0.1230 0.4234
vt 0.1300 0.4405
vt 0.0705 0.4405
vt 0.0776 0.4234
vt 0.1229 0.3141
vt 0.1299 0.2971
vt 0.1422 0.4106
vt 0.1552 0.4236
vt 0.0453 0.4236
vt 0.0584 0.4106
vt 0.1550 0.3914
vt 0.1721 0.3985
vt 0.0285 0.3985
vt 0.0455 0.3914
vt 0.1595 0.3688
vt 0.1780 0.3688
vt 0.0226 0.3688
vt 0.0410 0.3688
vt 0.1550 0.3461
vt 0.1721 0.3391
vt 0.0285 0.3391
vt 0.0455 0.3461
vt 0.1422 0.3269
vt 0.1552 0.3139
vt 0.0453 0.3139
vt 0.0584 0.3269
vt 0.1230 0.3141
vt 0.1300 0.2971
vt 0.0705 0.2971
vt 0.0776 0.3141
vt 0.1003 0.3096
vt 0.1003 0.2912
vt 0.1002 0.2912
vt 0.1002 0.3096
vt 0.1354 0.3334
vt 0.1462 0.3495
vt 0.1500 0.3686
vt 0.1462 0.3877
vt 0.1354 0.4039
vt 0.1192 0.4147
vt 0.1002 0.4185
vt 0.0811 0.4147
vt 0.0649 0.4039
vt 0.0541 0.3877
vt 0.0503 0.3686
vt 0.0541 0.3495
vt 0.0649 0.3334
vt 0.0811 0.3226
vt 0.1002 0.3188
vt 0.1192 0.3226
vt 0.3304 0.8197
vt 0.3392 0.8256
vt 0.3451 0.8344
vt 0.3472 0.8449
vt 0.3451 0.8553
vt 0.3392 0.8641
vt 0.3304 0.8700
vt 0.3200 0.8721
vt 0.3096 0.8700
vt 0.3008 0.8641
vt 0.2949 0.8553
vt 0.2928 0.8449
vt 0.2949 0.8344
vt 0.3008 0.8256
vt 0.3096 0.8197
vt 0.3200 0.8176
vt 0.0542 0.3879
vt 0.0504 0.3688
vt 0.2588 0.4027
vt 0.2450 0.4071
vt 0.2450 0.3654
vt 0.2588 0.3654
vt 0.2034 0.4071
vt 0.2034 0.3654
vt 0.1896 0.4027
vt 0.1896 0.3654
vt 0.1466 0.3880
vt 0.1504 0.3688
vt 0.2588 0.3281
vt 0.2450 0.3236
vt 0.2450 0.2882
vt 0.2588 0.2964
vt 0.0650 0.4041
vt 0.2588 0.4344
vt 0.2450 0.4425
vt 0.2034 0.4425
vt 0.1896 0.4344
vt 0.1357 0.4042
vt 0.1899 0.2963
vt 0.2038 0.2881
vt 0.2038 0.3235
vt 0.1899 0.3279
vt 0.2034 0.3236
vt 0.2034 0.2882
vt 0.0812 0.4149
vt 0.1892 0.4026
vt 0.2030 0.4070
vt 0.2030 0.4424
vt 0.1892 0.4342
vt 0.2445 0.4070
vt 0.2445 0.4424
vt 0.2584 0.4026
vt 0.2584 0.4342
vt 0.1194 0.4151
vt 0.2453 0.2881
vt 0.2453 0.3235
vt 0.1896 0.3281
vt 0.1896 0.2964
vt 0.1003 0.4187
vt 0.1892 0.3653
vt 0.2030 0.3653
vt 0.2445 0.3653
vt 0.2584 0.3653
vt 0.1002 0.4189
vt 0.2591 0.2963
vt 0.2591 0.3279
vt 0.1195 0.4149
vt 0.1892 0.3279
vt 0.2030 0.3235
vt 0.2445 0.3235
vt 0.2584 0.3279
vt 0.0810 0.4151
vt 0.1466 0.3496
vt 0.1357 0.3333
vt 0.1357 0.4041
vt 0.1892 0.2963
vt 0.2030 0.2881
vt 0.2445 0.2881
vt 0.2584 0.2963
vt 0.0647 0.4042
vt 0.1194 0.3224
vt 0.0542 0.3497
vt 0.0650 0.3335
vt 0.1465 0.3879
vt 0.1895 0.4026
vt 0.2033 0.4070
vt 0.2033 0.4424
vt 0.1895 0.4342
vt 0.2449 0.4070
vt 0.2449 0.4424
vt 0.2587 0.4026
vt 0.2587 0.4342
vt 0.0539 0.3880
vt 0.1503 0.3688
vt 0.1895 0.3653
vt 0.2033 0.3653
vt 0.2449 0.3653
vt 0.2587 0.3653
vt 0.0500 0.3688
vt 0.1465 0.3497
vt 0.1895 0.3279
vt 0.2033 0.3235
vt 0.2449 0.3235
vt 0.2587 0.3279
vt 0.0539 0.3496
vt 0.1357 0.3335
vt 0.1895 0.2963
vt 0.2033 0.2881
vt 0.2449 0.2881
vt 0.2587 0.2963
vt 0.0647 0.3333
vt 0.1195 0.3226
vt 0.1899 0.4026
vt 0.2038 0.4070
vt 0.2038 0.4424
vt 0.1899 0.4342
vt 0.2453 0.4070
vt 0.2453 0.4424
vt 0.2591 0.4026
vt 0.2591 0.4342
vt 0.0810 0.3224
vt 0.1003 0.3188
vt 0.1899 0.3653
vt 0.2038 0.3653
vt 0.2453 0.3653
vt 0.2591 0.3653
vt 0.1002 0.3186
vt 0.0812 0.3226
vn -0.0000 -0.0000 1.0000
vn 0.0000 0.0000 -1.0000
vn 0.0000 -0.0038 -1.0000
vn 0.0026 -0.0025 -1.0000
vn 0.0269 0.0274 0.9993
vn -0.0008 0.0384 0.9993
vn 0.0555 0.0125 -0.9984
vn 0.0093 -0.0767 -0.9970
vn -0.0014 -0.0305 -0.9995
vn 0.0001 -0.0002 -1.0000
vn 0.2473 -0.0983 0.9639
vn 0.1951 -0.0776 0.9777
vn 0.2099 0.0030 0.9777
vn 0.2661 0.0038 0.9639
vn -0.4319 0.1717 0.8854
vn -0.8777 0.3490 0.3284
vn -0.9444 -0.0134 0.3284
vn -0.4647 -0.0066 0.8854
vn -0.8777 0.3490 -0.3284
vn -0.9444 -0.0134 -0.3284
vn -0.4319 0.1717 -0.8854
vn -0.4647 -0.0066 -0.8854
vn 0.2434 -0.0967 -0.9651
vn 0.3061 -0.1217 -0.9442
vn 0.3293 0.0047 -0.9442
vn 0.2618 0.0037 -0.9651
vn -0.4192 -0.1707 0.8917
vn -0.8675 -0.3694 0.3332
vn -0.6317 -0.6715 0.3872
vn -0.3041 -0.3042 0.9027
vn 0.1908 -0.1855 0.9639
vn 0.1505 -0.1463 0.9777
vn -0.3333 0.3239 0.8854
vn -0.6773 0.6583 0.3284
vn -0.6793 0.6583 -0.3244
vn -0.3366 0.3236 -0.8843
vn 0.1878 -0.1836 -0.9649
vn 0.2362 -0.2296 -0.9442
vn -0.2910 -0.8900 0.3509
vn -0.1478 -0.4167 0.8969
vn -0.8677 -0.3733 -0.3280
vn -0.6008 -0.7146 -0.3583
vn 0.1053 -0.2444 0.9639
vn 0.0831 -0.1928 0.9777
vn -0.1839 0.4268 0.8854
vn -0.3738 0.8674 0.3284
vn -0.3695 0.8698 -0.3269
vn -0.1968 0.4231 -0.8844
vn 0.1044 -0.2422 -0.9646
vn 0.1304 -0.3025 -0.9442
vn -0.2647 -0.8924 -0.3655
vn -0.4236 -0.1784 -0.8881
vn -0.3128 -0.3005 -0.9010
vn 0.0038 -0.2661 0.9639
vn 0.0107 -0.2024 0.9792
vn 0.0019 0.4613 0.8872
vn -0.0113 0.9423 0.3346
vn -0.0140 0.9438 -0.3301
vn -0.0069 0.4637 -0.8860
vn 0.0045 -0.2626 -0.9649
vn 0.0047 -0.3294 -0.9442
vn -0.1219 -0.3843 -0.9151
vn -0.0983 -0.2473 0.9639
vn -0.0703 -0.1770 0.9817
vn 0.1740 0.4375 0.8822
vn 0.3476 0.8742 0.3391
vn 0.3490 0.8777 -0.3284
vn 0.1717 0.4318 -0.8854
vn -0.0967 -0.2434 -0.9651
vn -0.1217 -0.3061 -0.9442
vn 0.2405 0.1036 -0.9651
vn 0.3025 0.1304 -0.9442
vn 0.2296 0.2362 -0.9442
vn 0.1825 0.1878 -0.9651
vn -0.1855 -0.1908 0.9639
vn -0.1468 -0.1397 0.9792
vn 0.3154 0.3367 0.8872
vn 0.6553 0.6772 0.3346
vn 0.6583 0.6773 -0.3284
vn 0.3239 0.3333 -0.8854
vn -0.1825 -0.1878 -0.9651
vn -0.2296 -0.2362 -0.9442
vn 0.1217 0.3061 -0.9442
vn 0.0968 0.2433 -0.9651
vn 0.2444 0.1053 0.9639
vn 0.1928 0.0831 0.9777
vn 0.1463 0.1505 0.9777
vn 0.1855 0.1908 0.9639
vn -0.2444 -0.1053 0.9639
vn -0.1928 -0.0831 0.9777
vn 0.4268 0.1839 0.8854
vn 0.8674 0.3739 0.3284
vn 0.8674 0.3738 -0.3284
vn 0.4268 0.1839 -0.8854
vn -0.2405 -0.1036 -0.9651
vn -0.3025 -0.1304 -0.9442
vn -0.2661 -0.0038 0.9639
vn -0.2099 -0.0030 0.9777
vn 0.4647 0.0066 0.8854
vn 0.9444 0.0134 0.3284
vn 0.9444 0.0134 -0.3284
vn 0.4647 0.0066 -0.8854
vn -0.2618 -0.0037 -0.9651
vn -0.3293 -0.0047 -0.9442
vn -0.2473 0.0983 0.9639
vn -0.1951 0.0776 0.9777
vn 0.4319 -0.1717 0.8854
vn 0.8777 -0.3490 0.3284
vn 0.8785 -0.3486 -0.3265
vn 0.4461 -0.1682 -0.8790
vn -0.2377 0.1166 -0.9643
vn -0.3156 0.1390 -0.9386
vn -0.1890 0.1728 0.9666
vn -0.1526 0.1408 0.9782
vn 0.3433 -0.3314 0.8788
vn 0.6747 -0.6708 0.3079
vn 0.6678 -0.6693 -0.3256
vn 0.3416 -0.3371 -0.8773
vn -0.1898 0.1896 -0.9633
vn -0.2625 0.2614 -0.9288
vn -0.0997 0.2095 0.9727
vn -0.0749 0.1608 0.9841
vn 0.2097 -0.4715 0.8566
vn 0.3456 -0.8953 0.2810
vn 0.3488 -0.8704 -0.3475
vn 0.1654 -0.4436 -0.8808
vn -0.1221 0.2295 -0.9656
vn -0.1529 0.3233 -0.9338
vn 0.0056 0.2323 0.9726
vn 0.0000 0.1755 0.9845
vn 0.0205 -0.4885 0.8723
vn 0.0208 -0.9494 0.3134
vn 0.0393 -0.9285 -0.3692
vn 0.0132 -0.4339 -0.9008
vn -0.0082 0.2592 -0.9658
vn -0.0094 0.3350 -0.9422
vn 0.1018 0.2351 0.9666
vn 0.0816 0.1908 0.9782
usemtl oil-truck
s off
f 122/1/1 123/2/1 115/3/1 114/4/1
f 10/5/1 11/6/1 3/7/1 2/8/1
f 14/9/2 15/10/2 7/11/2 6/12/2
f 114/4/1 115/3/1 107/13/1 106/14/1
f 18/15/1 19/16/1 11/6/1 10/5/1
f 22/17/2 23/18/2 15/10/2 14/9/2
f 26/19/1 27/20/1 19/16/1 18/15/1
f 30/21/3 31/22/3 23/18/3 22/17/3
f 34/23/1 35/24/1 27/20/1 26/19/1
f 38/25/4 39/26/4 31/22/4 30/21/4
f 126/27/2 127/28/2 119/29/2 118/30/2
f 42/31/5 43/32/5 35/24/5 34/23/5
f 46/33/2 47/34/2 39/26/2 38/25/2
f 118/30/2 119/29/2 111/35/2 110/36/2
f 50/37/6 51/38/6 43/32/6 42/31/6
f 54/39/2 55/40/2 47/34/2 46/33/2
f 58/41/1 59/42/1 51/38/1 50/37/1
f 62/43/2 63/44/2 55/40/2 54/39/2
f 66/45/1 67/46/1 59/42/1 58/41/1
f 70/47/2 71/48/2 63/44/2 62/43/2
f 2/8/1 3/7/1 123/2/1 122/1/1
f 74/49/1 75/50/1 67/46/1 66/45/1
f 78/51/2 79/52/2 71/48/2 70/47/2
f 82/53/1 83/54/1 75/50/1 74/49/1
f 86/55/7 87/56/7 79/52/7 78/51/7
f 90/57/1 91/58/1 83/54/1 82/53/1
f 94/59/8 95/60/8 87/56/8 86/55/8
f 98/61/1 99/62/1 91/58/1 90/57/1
f 102/63/9 103/64/9 95/60/9 94/59/9
f 6/12/2 7/11/2 127/28/2 126/27/2
f 106/14/1 107/13/1 99/62/1 98/61/1
f 110/36/10 111/35/10 103/64/10 102/63/10
f 81/65/1 73/66/1 65/67/1 57/68/1 49/69/1 41/70/1 33/71/1 25/72/1 17/73/1 9/74/1 1/75/1 121/76/1 113/77/1 105/78/1 97/79/1 89/80/1
f 112/81/2 120/82/2 128/83/2 8/84/2 16/85/2 24/86/2 32/87/2 40/88/2 48/89/2 56/90/2 64/91/2 72/92/2 80/93/2 88/94/2 96/95/2 104/96/2
s 1
f 9/97/11 10/5/12 2/8/13 1/98/14
f 11/99/15 12/100/16 4/101/17 3/102/18
f 12/100/16 13/103/19 5/104/20 4/101/17
f 13/103/19 14/105/21 6/106/22 5/104/20
f 15/10/23 16/107/24 8/108/25 7/11/26
f 123/109/27 124/110/28 116/111/29 115/112/30
f 17/113/31 18/15/32 10/5/12 9/97/11
f 19/114/33 20/115/34 12/100/16 11/99/15
f 20/115/34 21/116/35 13/103/19 12/100/16
f 21/116/35 22/117/36 14/105/21 13/103/19
f 23/18/37 24/118/38 16/107/24 15/10/23
f 115/119/30 116/120/29 108/121/39 107/122/40
f 124/110/28 125/123/41 117/124/42 116/111/29
f 25/125/43 26/19/44 18/15/32 17/113/31
f 27/126/45 28/127/46 20/128/34 19/129/33
f 28/127/46 29/130/47 21/131/35 20/128/34
f 29/130/47 30/132/48 22/133/36 21/131/35
f 31/22/49 32/134/50 24/118/38 23/18/37
f 116/120/29 117/135/42 109/136/51 108/121/39
f 125/123/41 126/137/52 118/138/53 117/124/42
f 33/139/54 34/23/55 26/19/44 25/125/43
f 35/140/56 36/141/57 28/127/46 27/126/45
f 36/141/57 37/142/58 29/130/47 28/127/46
f 37/142/58 38/143/59 30/132/48 29/130/47
f 39/26/60 40/144/61 32/134/50 31/22/49
f 117/135/42 118/145/53 110/146/62 109/136/51
f 41/147/63 42/31/64 34/23/55 33/139/54
f 43/148/65 44/149/66 36/141/57 35/140/56
f 44/149/66 45/150/67 37/142/58 36/141/57
f 45/150/67 46/151/68 38/143/59 37/142/58
f 47/34/69 48/152/70 40/144/61 39/26/60
f 127/28/71 128/153/72 120/154/73 119/29/74
f 49/155/75 50/37/76 42/31/64 41/147/63
f 51/156/77 52/157/78 44/149/66 43/148/65
f 52/157/78 53/158/79 45/150/67 44/149/66
f 53/158/79 54/159/80 46/151/68 45/150/67
f 55/40/81 56/160/82 48/152/70 47/34/69
f 119/29/74 120/154/73 112/161/83 111/35/84
f 121/162/85 122/1/86 114/4/87 113/163/88
f 57/164/89 58/41/90 50/37/76 49/155/75
f 59/165/91 60/166/92 52/167/78 51/168/77
f 60/166/92 61/169/93 53/170/79 52/167/78
f 61/169/93 62/171/94 54/172/80 53/170/79
f 63/44/95 64/173/96 56/160/82 55/40/81
f 1/98/14 2/8/13 122/1/86 121/162/85
f 65/174/97 66/45/98 58/41/90 57/164/89
f 67/175/99 68/176/100 60/166/92 59/165/91
f 68/176/100 69/177/101 61/169/93 60/166/92
f 69/177/101 70/178/102 62/171/94 61/169/93
f 71/48/103 72/179/104 64/173/96 63/44/95
f 73/180/105 74/49/106 66/45/98 65/174/97
f 75/181/107 76/182/108 68/176/100 67/175/99
f 76/182/108 77/183/109 69/177/101 68/176/100
f 77/183/109 78/184/110 70/178/102 69/177/101
f 79/52/111 80/185/112 72/179/104 71/48/103
f 3/102/18 4/101/17 124/110/28 123/109/27
f 81/186/113 82/53/114 74/49/106 73/180/105
f 83/187/115 84/188/116 76/182/108 75/181/107
f 84/188/116 85/189/117 77/183/109 76/182/108
f 85/189/117 86/190/118 78/184/110 77/183/109
f 87/56/119 88/191/120 80/185/112 79/52/111
f 4/101/17 5/104/20 125/123/41 124/110/28
f 89/192/121 90/57/122 82/53/114 81/186/113
f 91/193/123 92/194/124 84/195/116 83/196/115
f 92/194/124 93/197/125 85/198/117 84/195/116
f 93/197/125 94/199/126 86/200/118 85/198/117
f 95/60/127 96/201/128 88/191/120 87/56/119
f 5/104/20 6/106/22 126/137/52 125/123/41
f 97/202/129 98/61/130 90/57/122 89/192/121
f 99/203/131 100/204/132 92/194/124 91/193/123
f 100/204/132 101/205/133 93/197/125 92/194/124
f 101/205/133 102/206/134 94/199/126 93/197/125
f 103/64/135 104/207/136 96/201/128 95/60/127
f 105/208/137 106/14/138 98/61/130 97/202/129
f 107/122/40 108/121/39 100/204/132 99/203/131
f 108/121/39 109/136/51 101/205/133 100/204/132
f 109/136/51 110/146/62 102/206/134 101/205/133
f 111/35/84 112/161/83 104/207/136 103/64/135
f 7/11/26 8/108/25 128/153/72 127/28/71
f 113/163/88 114/4/87 106/14/138 105/208/137
