# Blender v2.78 (sub 0) OBJ File: 'animation.blend'
# www.blender.org
mtllib wheelr.mtl
o wheel.001_ID38.005
v -0.236291 -0.523317 0.016537
v -0.286932 -0.620236 0.016537
v -0.286932 -0.813445 0.016537
v -0.171446 -0.910049 0.016537
v 0.174988 -0.910049 0.016537
v 0.290466 -0.813445 0.016537
v 0.290466 -0.620236 0.016537
v 0.225675 -0.525887 0.016537
v -0.236291 -0.483473 -0.183729
v -0.286932 -0.573015 -0.220816
v -0.286932 -0.751525 -0.294755
v -0.171446 -0.840771 -0.331724
v 0.174988 -0.840771 -0.331724
v 0.290466 -0.751525 -0.294755
v 0.290466 -0.573015 -0.220816
v 0.225675 -0.485858 -0.184715
v -0.236291 -0.370043 -0.353506
v -0.286932 -0.438563 -0.422033
v -0.286932 -0.575196 -0.558655
v -0.171446 -0.643494 -0.626966
v 0.174988 -0.643494 -0.626966
v 0.290466 -0.575196 -0.558655
v 0.290466 -0.438563 -0.422033
v 0.225675 -0.371855 -0.355327
v -0.236291 -0.200260 -0.466946
v -0.286932 -0.237349 -0.556482
v -0.286932 -0.311286 -0.734987
v -0.171446 -0.348264 -0.824239
v 0.174988 -0.348264 -0.824239
v 0.291632 -0.333473 -0.726682
v 0.290466 -0.237349 -0.556482
v 0.225675 -0.201258 -0.469326
v -0.236291 -0.000006 -0.506781
v -0.286932 -0.000006 -0.603696
v -0.286932 -0.000006 -0.796907
v -0.171446 -0.000006 -0.893511
v 0.174988 -0.000006 -0.893511
v 0.290466 -0.000006 -0.796907
v 0.290466 -0.000006 -0.603696
v 0.225675 -0.000006 -0.509358
v -0.236291 0.200266 -0.466946
v -0.286932 0.237354 -0.556482
v -0.274870 0.311291 -0.734987
v -0.171446 0.348269 -0.824239
v 0.174988 0.348269 -0.824239
v 0.290466 0.311291 -0.734987
v 0.290466 0.237354 -0.556482
v 0.225675 0.201245 -0.469326
v -0.236291 0.370049 -0.353506
v -0.286932 0.438569 -0.422033
v -0.286932 0.575184 -0.558655
v -0.171446 0.643500 -0.626966
v 0.174988 0.643500 -0.626966
v 0.290466 0.575202 -0.558655
v 0.290466 0.438569 -0.422033
v 0.225675 0.371861 -0.355327
v -0.236291 0.483479 -0.183729
v -0.286932 0.573021 -0.220816
v -0.286932 0.751531 -0.294755
v -0.171446 0.840777 -0.331724
v 0.174988 0.840777 -0.331724
v 0.290466 0.751531 -0.294755
v 0.290466 0.573021 -0.220816
v 0.225675 0.485864 -0.184715
v -0.236291 0.523322 0.016537
v -0.286932 0.620241 0.016537
v -0.286932 0.813450 0.016537
v -0.171446 0.910055 0.016537
v 0.174988 0.910055 0.016537
v 0.290466 0.813450 0.016537
v 0.290466 0.620241 0.016537
v 0.225675 0.525892 0.016537
v -0.236291 0.483479 0.216802
v -0.286932 0.573021 0.253888
v -0.286932 0.751531 0.327827
v -0.171446 0.840777 0.364798
v 0.174988 0.840777 0.364798
v 0.290466 0.751531 0.327827
v 0.290466 0.573021 0.253888
v 0.225675 0.485864 0.217787
v -0.236291 0.370049 0.386578
v -0.286932 0.438569 0.455107
v -0.286932 0.575184 0.591727
v -0.171446 0.643500 0.660038
v 0.174988 0.643500 0.660038
v 0.294311 0.575202 0.591729
v 0.309418 0.438569 0.455107
v 0.225675 0.371861 0.388401
v -0.236291 0.200266 0.500018
v -0.286932 0.245247 0.609645
v -0.286932 0.327202 0.780096
v -0.180521 0.337049 0.845604
v 0.189286 0.360863 0.833567
v 0.287527 0.318720 0.752094
v 0.297270 0.237354 0.589556
v 0.225675 0.201245 0.502400
v -0.236291 -0.000006 0.539855
v -0.286932 0.008115 0.659920
v -0.286932 0.019156 0.831674
v -0.198967 -0.000710 0.896687
v 0.193010 0.017017 0.888439
v 0.290391 0.010513 0.801509
v 0.290466 -0.000006 0.636768
v 0.225675 -0.000006 0.542430
v -0.236291 -0.200260 0.500018
v -0.286932 -0.237349 0.589556
v -0.286932 -0.302476 0.770656
v -0.187615 -0.333561 0.854187
v 0.184097 -0.323842 0.863143
v 0.290466 -0.304010 0.750042
v 0.290466 -0.237349 0.589556
v 0.225675 -0.201258 0.502400
v -0.236291 -0.370043 0.386578
v -0.286932 -0.438563 0.455107
v -0.286932 -0.575196 0.591727
v -0.203652 -0.630832 0.665477
v 0.185451 -0.604814 0.719431
v 0.290466 -0.575196 0.591729
v 0.290466 -0.438563 0.455107
v 0.225675 -0.371855 0.388401
v -0.236291 -0.483473 0.216802
v -0.286932 -0.573015 0.253888
v -0.286932 -0.751525 0.327827
v -0.171446 -0.840771 0.364798
v 0.174988 -0.840771 0.364798
v 0.290466 -0.751525 0.327827
v 0.290466 -0.573015 0.253888
v 0.225675 -0.485858 0.217787
v 0.282881 0.658229 0.189155
v 0.257543 0.497279 0.087247
v 0.006470 0.593067 0.096082
vt 0.0457 0.3461
vt 0.0286 0.3391
vt 0.0455 0.3139
vt 0.0585 0.3269
vt 0.0457 0.3914
vt 0.0286 0.3985
vt 0.0227 0.3688
vt 0.0412 0.3688
vt 0.1719 0.3985
vt 0.1549 0.3914
vt 0.1594 0.3688
vt 0.1778 0.3688
vt 0.0706 0.2971
vt 0.0777 0.3141
vt 0.0585 0.4106
vt 0.0455 0.4236
vt 0.1551 0.4236
vt 0.1421 0.4106
vt 0.0777 0.4234
vt 0.0706 0.4405
vt 0.1299 0.4405
vt 0.1229 0.4234
vt 0.1003 0.4279
vt 0.1003 0.4464
vt 0.1002 0.4464
vt 0.1002 0.4279
vt 0.1719 0.3391
vt 0.1549 0.3461
vt 0.1421 0.3269
vt 0.1551 0.3139
vt 0.1230 0.4234
vt 0.1300 0.4405
vt 0.0705 0.4405
vt 0.0776 0.4234
vt 0.1229 0.3141
vt 0.1299 0.2971
vt 0.1422 0.4106
vt 0.1552 0.4236
vt 0.0453 0.4236
vt 0.0584 0.4106
vt 0.1550 0.3914
vt 0.1721 0.3985
vt 0.0285 0.3985
vt 0.0455 0.3914
vt 0.1595 0.3688
vt 0.1780 0.3688
vt 0.0226 0.3688
vt 0.0410 0.3688
vt 0.1550 0.3461
vt 0.1721 0.3391
vt 0.0285 0.3391
vt 0.0455 0.3461
vt 0.1422 0.3269
vt 0.1552 0.3139
vt 0.0453 0.3139
vt 0.0584 0.3269
vt 0.1230 0.3141
vt 0.1300 0.2971
vt 0.0705 0.2971
vt 0.0776 0.3141
vt 0.1003 0.3096
vt 0.1003 0.2912
vt 0.1002 0.2912
vt 0.1002 0.3096
vt 0.1354 0.3334
vt 0.1462 0.3495
vt 0.1500 0.3686
vt 0.1462 0.3877
vt 0.1354 0.4039
vt 0.1192 0.4147
vt 0.1002 0.4185
vt 0.0811 0.4147
vt 0.0649 0.4039
vt 0.0541 0.3877
vt 0.0503 0.3686
vt 0.0541 0.3495
vt 0.0649 0.3334
vt 0.0811 0.3226
vt 0.1002 0.3188
vt 0.1192 0.3226
vt 0.3304 0.8197
vt 0.3392 0.8256
vt 0.3451 0.8344
vt 0.3472 0.8449
vt 0.3451 0.8553
vt 0.3392 0.8641
vt 0.3304 0.8700
vt 0.3200 0.8721
vt 0.3096 0.8700
vt 0.3008 0.8641
vt 0.2949 0.8553
vt 0.2928 0.8449
vt 0.2949 0.8344
vt 0.3008 0.8256
vt 0.3096 0.8197
vt 0.3200 0.8176
vt 0.0542 0.3879
vt 0.0504 0.3688
vt 0.2588 0.4027
vt 0.2450 0.4071
vt 0.2450 0.3654
vt 0.2588 0.3654
vt 0.2034 0.4071
vt 0.2034 0.3654
vt 0.1896 0.4027
vt 0.1896 0.3654
vt 0.1466 0.3880
vt 0.1504 0.3688
vt 0.2588 0.3281
vt 0.2450 0.3236
vt 0.2450 0.2882
vt 0.2588 0.2964
vt 0.0650 0.4041
vt 0.2588 0.4344
vt 0.2450 0.4425
vt 0.2034 0.4425
vt 0.1896 0.4344
vt 0.1357 0.4042
vt 0.1899 0.2963
vt 0.2038 0.2881
vt 0.2038 0.3235
vt 0.1899 0.3279
vt 0.2034 0.3236
vt 0.2034 0.2882
vt 0.0812 0.4149
vt 0.1892 0.4026
vt 0.2030 0.4070
vt 0.2030 0.4424
vt 0.1892 0.4342
vt 0.2445 0.4070
vt 0.2445 0.4424
vt 0.2584 0.4026
vt 0.2584 0.4342
vt 0.1194 0.4151
vt 0.2453 0.2881
vt 0.2453 0.3235
vt 0.1896 0.3281
vt 0.1896 0.2964
vt 0.1003 0.4187
vt 0.1892 0.3653
vt 0.2030 0.3653
vt 0.2445 0.3653
vt 0.2584 0.3653
vt 0.1002 0.4189
vt 0.2591 0.2963
vt 0.2591 0.3279
vt 0.1195 0.4149
vt 0.1892 0.3279
vt 0.2030 0.3235
vt 0.2445 0.3235
vt 0.2584 0.3279
vt 0.0810 0.4151
vt 0.1466 0.3496
vt 0.1357 0.3333
vt 0.1357 0.4041
vt 0.1892 0.2963
vt 0.2030 0.2881
vt 0.2445 0.2881
vt 0.2584 0.2963
vt 0.0647 0.4042
vt 0.1194 0.3224
vt 0.0542 0.3497
vt 0.0650 0.3335
vt 0.1465 0.3879
vt 0.1895 0.4026
vt 0.2033 0.4070
vt 0.2033 0.4424
vt 0.1895 0.4342
vt 0.2449 0.4070
vt 0.2449 0.4424
vt 0.2587 0.4026
vt 0.2587 0.4342
vt 0.0539 0.3880
vt 0.1503 0.3688
vt 0.1895 0.3653
vt 0.2033 0.3653
vt 0.2449 0.3653
vt 0.2587 0.3653
vt 0.0500 0.3688
vt 0.1465 0.3497
vt 0.1895 0.3279
vt 0.2033 0.3235
vt 0.2449 0.3235
vt 0.2587 0.3279
vt 0.0539 0.3496
vt 0.1357 0.3335
vt 0.1895 0.2963
vt 0.2033 0.2881
vt 0.2449 0.2881
vt 0.2587 0.2963
vt 0.0647 0.3333
vt 0.1195 0.3226
vt 0.1899 0.4026
vt 0.2038 0.4070
vt 0.2038 0.4424
vt 0.1899 0.4342
vt 0.2453 0.4070
vt 0.2453 0.4424
vt 0.2591 0.4026
vt 0.2591 0.4342
vt 0.0810 0.3224
vt 0.1003 0.3188
vt 0.1899 0.3653
vt 0.2038 0.3653
vt 0.2453 0.3653
vt 0.2591 0.3653
vt 0.1002 0.3186
vt 0.0812 0.3226
vn -1.0000 0.0000 -0.0000
vn 1.0000 0.0000 0.0000
vn 1.0000 -0.0000 0.0038
vn 1.0000 0.0026 0.0025
vn -0.9993 0.0273 -0.0270
vn -0.9993 -0.0002 -0.0384
vn 0.9984 0.0557 -0.0117
vn 0.9970 0.0082 0.0768
vn 0.9995 -0.0018 0.0305
vn 1.0000 0.0001 0.0002
vn -0.9639 0.2459 0.1018
vn -0.9777 0.1940 0.0803
vn -0.9777 0.2099 0.0000
vn -0.9639 0.2661 0.0000
vn -0.8854 -0.4294 -0.1779
vn -0.3284 -0.8726 -0.3615
vn -0.3284 -0.9445 0.0000
vn -0.8854 -0.4648 0.0000
vn 0.3284 -0.8726 -0.3615
vn 0.3284 -0.9445 0.0000
vn 0.8854 -0.4294 -0.1778
vn 0.8854 -0.4647 0.0000
vn 0.9651 0.2420 0.1002
vn 0.9442 0.3043 0.1260
vn 0.9442 0.3294 0.0000
vn 0.9651 0.2619 0.0000
vn -0.8917 -0.4216 0.1647
vn -0.3332 -0.8726 0.3570
vn -0.3872 -0.6412 0.6625
vn -0.9027 -0.3084 0.2999
vn -0.9639 0.1882 0.1882
vn -0.9777 0.1484 0.1484
vn -0.8854 -0.3286 -0.3286
vn -0.3284 -0.6679 -0.6679
vn 0.3244 -0.6699 -0.6679
vn 0.8843 -0.3320 -0.3283
vn 0.9649 0.1851 0.1863
vn 0.9442 0.2329 0.2329
vn -0.3509 -0.3036 0.8858
vn -0.8969 -0.1537 0.4146
vn 0.3280 -0.8730 0.3609
vn 0.3583 -0.6110 0.7059
vn -0.9639 0.1018 0.2459
vn -0.9777 0.0803 0.1940
vn -0.8854 -0.1778 -0.4294
vn -0.3284 -0.3615 -0.8726
vn 0.3269 -0.3571 -0.8750
vn 0.8844 -0.1908 -0.4258
vn 0.9646 0.1010 0.2437
vn 0.9442 0.1260 0.3043
vn 0.3655 -0.2774 0.8885
vn 0.8881 -0.4261 0.1723
vn 0.9010 -0.3170 0.2961
vn -0.9639 0.0000 0.2661
vn -0.9792 0.0079 0.2025
vn -0.8872 0.0084 -0.4613
vn -0.3346 0.0021 -0.9424
vn 0.3301 -0.0005 -0.9439
vn 0.8860 -0.0003 -0.4638
vn 0.9649 0.0007 0.2626
vn 0.9442 0.0000 0.3294
vn 0.9151 -0.1274 0.3825
vn -0.9639 -0.1018 0.2459
vn -0.9817 -0.0729 0.1759
vn -0.8822 0.1802 -0.4350
vn -0.3391 0.3600 -0.8691
vn 0.3284 0.3614 -0.8726
vn 0.8854 0.1778 -0.4294
vn 0.9651 -0.1002 0.2420
vn 0.9442 -0.1260 0.3043
vn 0.9651 0.2420 -0.1002
vn 0.9442 0.3043 -0.1260
vn 0.9442 0.2329 -0.2329
vn 0.9651 0.1852 -0.1852
vn -0.9639 -0.1882 0.1882
vn -0.9792 -0.1488 0.1376
vn -0.8872 0.3202 -0.3321
vn -0.3346 0.6648 -0.6678
vn 0.3284 0.6679 -0.6679
vn 0.8854 0.3286 -0.3286
vn 0.9651 -0.1852 0.1852
vn 0.9442 -0.2329 0.2329
vn 0.9442 0.1260 -0.3043
vn 0.9651 0.1003 -0.2419
vn -0.9639 0.2459 -0.1018
vn -0.9777 0.1940 -0.0803
vn -0.9777 0.1484 -0.1484
vn -0.9639 0.1882 -0.1882
vn -0.9639 -0.2459 0.1018
vn -0.9777 -0.1940 0.0803
vn -0.8854 0.4294 -0.1779
vn -0.3284 0.8726 -0.3615
vn 0.3284 0.8726 -0.3615
vn 0.8854 0.4294 -0.1778
vn 0.9651 -0.2420 0.1002
vn 0.9442 -0.3043 0.1260
vn -0.9639 -0.2661 0.0000
vn -0.9777 -0.2099 0.0000
vn -0.8854 0.4648 0.0000
vn -0.3284 0.9445 0.0000
vn 0.3284 0.9445 0.0000
vn 0.8854 0.4647 0.0000
vn 0.9651 -0.2619 0.0000
vn 0.9442 -0.3294 0.0000
vn -0.9639 -0.2459 -0.1018
vn -0.9777 -0.1940 -0.0803
vn -0.8854 0.4294 0.1779
vn -0.3284 0.8726 0.3615
vn 0.3265 0.8735 0.3611
vn 0.8790 0.4436 0.1746
vn 0.9643 -0.2360 -0.1199
vn 0.9386 -0.3136 -0.1435
vn -0.9666 -0.1865 -0.1754
vn -0.9782 -0.1505 -0.1429
vn -0.8788 0.3385 0.3363
vn -0.3079 0.6651 0.6803
vn 0.3256 0.6582 0.6788
vn 0.8773 0.3367 0.3419
vn 0.9633 -0.1870 -0.1922
vn 0.9288 -0.2587 -0.2651
vn -0.9727 -0.0967 -0.2109
vn -0.9841 -0.0726 -0.1618
vn -0.8566 0.2029 0.4744
vn -0.2810 0.3328 0.9001
vn 0.3475 0.3363 0.8752
vn 0.8808 0.1590 0.4459
vn 0.9656 -0.1188 -0.2312
vn 0.9338 -0.1483 -0.3255
vn -0.9726 0.0089 -0.2322
vn -0.9845 0.0025 -0.1755
vn -0.8723 0.0135 0.4888
vn -0.3134 0.0073 0.9496
vn 0.3692 0.0261 0.9290
vn 0.9008 0.0070 0.4341
vn 0.9658 -0.0045 -0.2593
vn 0.9422 -0.0046 -0.3351
vn -0.9666 0.1051 -0.2336
vn -0.9782 0.0843 -0.1897
usemtl oil-truck
s off
f 122/1/1 123/2/1 115/3/1 114/4/1
f 10/5/1 11/6/1 3/7/1 2/8/1
f 14/9/2 15/10/2 7/11/2 6/12/2
f 114/4/1 115/3/1 107/13/1 106/14/1
f 18/15/1 19/16/1 11/6/1 10/5/1
f 22/17/2 23/18/2 15/10/2 14/9/2
f 26/19/1 27/20/1 19/16/1 18/15/1
f 30/21/3 31/22/3 23/18/3 22/17/3
f 34/23/1 35/24/1 27/20/1 26/19/1
f 38/25/4 39/26/4 31/22/4 30/21/4
f 126/27/2 127/28/2 119/29/2 118/30/2
f 42/31/5 43/32/5 35/24/5 34/23/5
f 46/33/2 47/34/2 39/26/2 38/25/2
f 118/30/2 119/29/2 111/35/2 110/36/2
f 50/37/6 51/38/6 43/32/6 42/31/6
f 54/39/2 55/40/2 47/34/2 46/33/2
f 58/41/1 59/42/1 51/38/1 50/37/1
f 62/43/2 63/44/2 55/40/2 54/39/2
f 66/45/1 67/46/1 59/42/1 58/41/1
f 70/47/2 71/48/2 63/44/2 62/43/2
f 2/8/1 3/7/1 123/2/1 122/1/1
f 74/49/1 75/50/1 67/46/1 66/45/1
f 78/51/2 79/52/2 71/48/2 70/47/2
f 82/53/1 83/54/1 75/50/1 74/49/1
f 86/55/7 87/56/7 79/52/7 78/51/7
f 90/57/1 91/58/1 83/54/1 82/53/1
f 94/59/8 95/60/8 87/56/8 86/55/8
f 98/61/1 99/62/1 91/58/1 90/57/1
f 102/63/9 103/64/9 95/60/9 94/59/9
f 6/12/2 7/11/2 127/28/2 126/27/2
f 106/14/1 107/13/1 99/62/1 98/61/1
f 110/36/10 111/35/10 103/64/10 102/63/10
f 81/65/1 73/66/1 65/67/1 57/68/1 49/69/1 41/70/1 33/71/1 25/72/1 17/73/1 9/74/1 1/75/1 121/76/1 113/77/1 105/78/1 97/79/1 89/80/1
f 112/81/2 120/82/2 128/83/2 8/84/2 16/85/2 24/86/2 32/87/2 40/88/2 48/89/2 56/90/2 64/91/2 72/92/2 80/93/2 88/94/2 96/95/2 104/96/2
s 1
f 9/97/11 10/5/12 2/8/13 1/98/14
f 11/99/15 12/100/16 4/101/17 3/102/18
f 12/100/16 13/103/19 5/104/20 4/101/17
f 13/103/19 14/105/21 6/106/22 5/104/20
f 15/10/23 16/107/24 8/108/25 7/11/26
f 123/109/27 124/110/28 116/111/29 115/112/30
f 17/113/31 18/15/32 10/5/12 9/97/11
f 19/114/33 20/115/34 12/100/16 11/99/15
f 20/115/34 21/116/35 13/103/19 12/100/16
f 21/116/35 22/117/36 14/105/21 13/103/19
f 23/18/37 24/118/38 16/107/24 15/10/23
f 115/119/30 116/120/29 108/121/39 107/122/40
f 124/110/28 125/123/41 117/124/42 116/111/29
f 25/125/43 26/19/44 18/15/32 17/113/31
f 27/126/45 28/127/46 20/128/34 19/129/33
f 28/127/46 29/130/47 21/131/35 20/128/34
f 29/130/47 30/132/48 22/133/36 21/131/35
f 31/22/49 32/134/50 24/118/38 23/18/37
f 116/120/29 117/135/42 109/136/51 108/121/39
f 125/123/41 126/137/52 118/138/53 117/124/42
f 33/139/54 34/23/55 26/19/44 25/125/43
f 35/140/56 36/141/57 28/127/46 27/126/45
f 36/141/57 37/142/58 29/130/47 28/127/46
f 37/142/58 38/143/59 30/132/48 29/130/47
f 39/26/60 40/144/61 32/134/50 31/22/49
f 117/135/42 118/145/53 110/146/62 109/136/51
f 41/147/63 42/31/64 34/23/55 33/139/54
f 43/148/65 44/149/66 36/141/57 35/140/56
f 44/149/66 45/150/67 37/142/58 36/141/57
f 45/150/67 46/151/68 38/143/59 37/142/58
f 47/34/69 48/152/70 40/144/61 39/26/60
f 127/28/71 128/153/72 120/154/73 119/29/74
f 49/155/75 50/37/76 42/31/64 41/147/63
f 51/156/77 52/157/78 44/149/66 43/148/65
f 52/157/78 53/158/79 45/150/67 44/149/66
f 53/158/79 54/159/80 46/151/68 45/150/67
f 55/40/81 56/160/82 48/152/70 47/34/69
f 119/29/74 120/154/73 112/161/83 111/35/84
f 121/162/85 122/1/86 114/4/87 113/163/88
f 57/164/89 58/41/90 50/37/76 49/155/75
f 59/165/91 60/166/92 52/167/78 51/168/77
f 60/166/92 61/169/93 53/170/79 52/167/78
f 61/169/93 62/171/94 54/172/80 53/170/79
f 63/44/95 64/173/96 56/160/82 55/40/81
f 1/98/14 2/8/13 122/1/86 121/162/85
f 65/174/97 66/45/98 58/41/90 57/164/89
f 67/175/99 68/176/100 60/166/92 59/165/91
f 68/176/100 69/177/101 61/169/93 60/166/92
f 69/177/101 70/178/102 62/171/94 61/169/93
f 71/48/103 72/179/104 64/173/96 63/44/95
f 73/180/105 74/49/106 66/45/98 65/174/97
f 75/181/107 76/182/108 68/176/100 67/175/99
f 76/182/108 77/183/109 69/177/101 68/176/100
f 77/183/109 78/184/110 70/178/102 69/177/101
f 79/52/111 80/185/112 72/179/104 71/48/103
f 3/102/18 4/101/17 124/110/28 123/109/27
f 81/186/113 82/53/114 74/49/106 73/180/105
f 83/187/115 84/188/116 76/182/108 75/181/107
f 84/188/116 85/189/117 77/183/109 76/182/108
f 85/189/117 86/190/118 78/184/110 77/183/109
f 87/56/119 88/191/120 80/185/112 79/52/111
f 4/101/17 5/104/20 125/123/41 124/110/28
f 89/192/121 90/57/122 82/53/114 81/186/113
f 91/193/123 92/194/124 84/195/116 83/196/115
f 92/194/124 93/197/125 85/198/117 84/195/116
f 93/197/125 94/199/126 86/200/118 85/198/117
f 95/60/127 96/201/128 88/191/120 87/56/119
f 5/104/20 6/106/22 126/137/52 125/123/41
f 97/202/129 98/61/130 90/57/122 89/192/121
f 99/203/131 100/204/132 92/194/124 91/193/123
f 100/204/132 101/205/133 93/197/125 92/194/124
f 101/205/133 102/206/134 94/199/126 93/197/125
f 103/64/135 104/207/136 96/201/128 95/60/127
f 105/208/137 106/14/138 98/61/130 97/202/129
f 107/122/40 108/121/39 100/204/132 99/203/131
f 108/121/39 109/136/51 101/205/133 100/204/132
f 109/136/51 110/146/62 102/206/134 101/205/133
f 111/35/84 112/161/83 104/207/136 103/64/135
f 7/11/26 8/108/25 128/153/72 127/28/71
f 113/163/88 114/4/87 106/14/138 105/208/137
